# xmcd CD database file
#
# Track frame offsets:
#	150
#	19606
#	39758
#	60628
#	79991
#	97962
#	107583
#	127662
#	130058
#	149810
#	167093
#	187274
#	199441
#	215363
#	225026
#
# Disc length: 3241 seconds
#
# Revision: 0
# Processed by: cddbd v1.5.1PL2 Copyright (c) Steve Scherf et al.
# Submitted via: CDex 1.50
#
DISCID=c60ca70f
DTITLE=Anis - La chance...
DYEAR=2005
DGENRE=Blues
TTITLE0=Avec le vent
TTITLE1=Bistro
TTITLE2=Mon métro
TTITLE3=Cergy
TTITLE4=Intégration
TTITLE5=J'aurais voulu être un MC
TTITLE6=Peut-être bien
TTITLE7=Pensées amères - Intro
TTITLE8=Pensées amères
TTITLE9=Louise et Thelma
TTITLE10=Oisif
TTITLE11=La preuve par 1000 (mahlich boy)
TTITLE12=Le sommeil
TTITLE13=Nobody knows you
TTITLE14=Reggablues
EXTD=YEAR: 2005
EXTT0=
EXTT1=
EXTT2=
EXTT3=
EXTT4=
EXTT5=
EXTT6=
EXTT7=
EXTT8=
EXTT9=
EXTT10=
EXTT11=
EXTT12=
EXTT13=
EXTT14=
PLAYORDER=
